<?xml version="1.0" encoding="utf-8"?><svg xmlns="http://www.w3.org/2000/svg" xmlns:xlink="http://www.w3.org/1999/xlink"><symbol viewBox="0 0 130 100" id="logo" xmlns="http://www.w3.org/2000/svg"><path d="M126.903 37.922c0 13.507-4.275 26.147-12.346 36.494C104.174 87.749 88.47 95.8 70.933 97.013c16.097-8.874 27.396-23.42 31.366-40.736 1.047-4.459 1.527-9.004 1.527-13.55a61.55 61.55 0 0 0-2.356-16.84c7.241-2.77 14.963-4.155 22.946-4.155h.35a62.31 62.31 0 0 1 2.137 16.19m-25.695 4.805c0 4.33-.48 8.702-1.483 12.944-3.84 16.58-14.702 30.52-30.144 39.004 7.808-11.039 12.04-23.982 12.04-36.926a60.01 60.01 0 0 0-1.57-13.636c-.219-1.04-.524-2.078-.83-3.117 5.54-6.06 12.172-10.78 19.762-14.07a57.59 57.59 0 0 1 2.225 15.801M98.242 24.33c-7.591 3.247-14.222 7.836-19.85 13.636v-.043l-.043.087c-2.53-7.316-6.413-14.07-11.56-20.044 5.627-6.017 12.345-10.822 20.067-14.372a59.754 59.754 0 0 1 3.708 5.022c3.272 4.935 5.889 10.216 7.678 15.714M76.255 40.346c-.698.823-1.396 1.645-2.05 2.468a60.124 60.124 0 0 0-9.249 16.883c-.043-.13-.087-.26-.13-.433a61.95 61.95 0 0 0-5.06-10.563c-1.222-2.034-2.618-4.026-4.058-5.887-.654-.823-1.352-1.645-2.05-2.468 2.355-7.489 6.15-14.329 11.298-20.346a58.188 58.188 0 0 1 11.299 20.346m-13.13-22.38c-5.148 5.973-9.031 12.683-11.561 20.043l-.044-.044v.044c-5.627-5.844-12.302-10.433-19.892-13.68 2.442-7.49 6.281-14.459 11.429-20.736a63.043 63.043 0 0 1 10.513 6.06l.175.13c2.05 1.472 4.057 3.074 5.89 4.762l.13.174.131.086c1.134.996 2.181 2.078 3.228 3.16m-32.282 8.961c7.635 3.29 14.265 8.052 19.762 14.113-.305 1.039-.61 2.121-.829 3.117-2.181 9.394-2.094 18.96.262 28.398 1.047 4.243 2.574 8.398 4.45 12.381 1.657 3.42 3.62 6.667 5.802 9.827C44.802 86.277 33.896 72.338 30.1 55.714a48.268 48.268 0 0 1-1.047-6.017c-.262-2.294-.437-4.632-.437-6.926.044-5.325.742-10.65 2.225-15.845m-2.53-1.039a61.55 61.55 0 0 0-2.356 16.84c0 2.425.131 4.849.437 7.273.261 2.121.61 4.242 1.09 6.32 3.97 17.316 15.269 31.862 31.366 40.736-8.027-.562-15.88-2.597-22.903-5.974l-.305-.13c-8.07-3.939-14.92-9.48-20.373-16.493C3.883 59.87.131 40.693 4.973 21.775c4.232 0 8.463.346 12.564 1.125l.436.087c1.658.303 3.316.736 4.93 1.169l.48.13c1.657.433 3.315.995 4.93 1.601m28.617 57.88a61.223 61.223 0 0 1-4.276-11.862c-2.224-9.005-2.312-18.139-.261-27.143.087-.433.218-.866.305-1.342.305.346.567.693.829 1.039a56.127 56.127 0 0 1 3.882 5.628l4.843 10.086a61.002 61.002 0 0 1 1.396 4.286l1.308 4.632 1.31-4.632a57.39 57.39 0 0 1 10.076-20c.262-.346.567-.693.83-1.04.13.434.217.867.305 1.3a57.136 57.136 0 0 1 1.483 13.03c0 13.723-4.973 27.36-14.004 38.615a62.964 62.964 0 0 1-8.026-12.598m72.677-45.844c0-5.974-.828-11.991-2.399-17.879l-.262-.952h-2.443c-8.288 0-16.271 1.428-23.775 4.286a66.117 66.117 0 0 0-7.983-16.234 68.047 68.047 0 0 0-4.537-6.017l-.654-.78-.916.39c-8.376 3.723-15.661 8.831-21.725 15.281a76.006 76.006 0 0 0-3.272-3.203l-.13-.13c-1.964-1.775-4.058-3.507-6.24-5.022l-.217-.13C51.346 4.935 47.376 2.641 43.144.78l-.916-.39-.654.78c-5.671 6.71-9.86 14.199-12.52 22.25a62.18 62.18 0 0 0-4.799-1.6l-.13-.174h-.393a65.082 65.082 0 0 0-5.017-1.212l-.087-.087h-.48c-4.625-.995-9.423-1.385-14.222-1.298H2.923L2.66 20c-5.453 20.087-1.614 40.52 10.513 56.06 5.803 7.446 13.088 13.29 21.638 17.403l.262.13c8.114 3.853 17.319 6.017 26.654 6.234h6.5c19.457-.52 37.08-9.091 48.51-23.766 8.376-10.823 12.87-23.983 12.87-38.139"/></symbol><symbol viewBox="0 0 363 100" id="logo-inline" xmlns="http://www.w3.org/2000/svg"><path d="M219.586 79.655h-4.069v19.448h4.276V87.655c0-2.827 1.862-5.103 4.69-5.103 2.551 0 3.724 1.31 3.793 4.345v12.206h4.276V85.724c0-4.345-2.69-6.62-6.897-6.62h-.276c-.62 0-1.172.137-1.724.275a6.753 6.753 0 0 0-4 3.173l-.069-.07v-2.827zM197.31 93.793c0-2.276 1.656-2.965 3.518-3.241 1.862-.345 3.93-.276 5.241-1.173v3.173c0 2.69-2.966 3.655-4.828 3.655-1.448.069-3.93-.483-3.93-2.414zm-4.276.207v.345c.207 3.586 3.242 5.31 6.621 5.31 2.276 0 5.035-.69 6.759-2.345.345 1.793 1.586 2.345 3.31 2.345.69 0 2.07-.276 2.69-.483v-2.965c-.414.069-.69.069-.966.069h-.138c-.758 0-1.034-.414-1.034-1.448v-10c0-4.07-4-5.656-7.793-5.656-4.276 0-8.552 1.449-8.828 6.483h4.276c.207-2.138 1.862-3.103 4.276-3.103 1.724 0 4 .414 4 2.62 0 2.552-2.759 2.207-5.862 2.759-3.448.414-7.31 1.172-7.31 6.069zm-25.172-14.345h-4.276v19.448h4.276V79.655zm0-7.38h-4.276v4.07h4.276v-4.07zm-7.931 0h-15.724v26.897h4.207v-11.93h9.862v-3.863h-9.862v-7.034h11.517v-4.07zm-33.586-34.62c0 13.448-4.207 25.931-12.276 36.207-10.345 13.241-25.931 21.241-43.38 22.414 16-8.828 27.242-23.242 31.173-40.414 1.035-4.414 1.517-8.965 1.517-13.448 0-5.586-.758-11.242-2.345-16.69 7.173-2.758 14.897-4.138 22.828-4.138h.345a60.9 60.9 0 0 1 2.138 16.07zm-25.586 4.759c0 4.345-.483 8.62-1.449 12.896-3.793 16.414-14.62 30.276-30 38.69 7.724-10.966 12-23.793 12-36.62 0-4.552-.482-9.104-1.517-13.518a25.825 25.825 0 0 0-.827-3.103c5.517-6 12.068-10.69 19.655-14 1.379 5.103 2.138 10.413 2.138 15.655zm-2.966-18.276c-7.517 3.241-14.138 7.793-19.724 13.517v-.069l-.069.07c-2.483-7.311-6.345-13.932-11.517-19.863 5.586-5.93 12.276-10.759 19.93-14.276a66.538 66.538 0 0 1 3.725 4.966c3.31 4.965 5.862 10.207 7.655 15.655zM64.69 19.862c5.103 6 8.896 12.759 11.241 20.207l-2.069 2.483A59.173 59.173 0 0 0 64.69 59.31c-.07-.138-.07-.276-.138-.413-1.31-3.656-3.035-7.173-5.035-10.483-1.241-2-2.551-4-4-5.862a32.863 32.863 0 0 0-2.069-2.483A57.202 57.202 0 0 1 64.69 19.862zm-1.793-2.069c-5.104 5.931-8.966 12.62-11.518 19.862l-.069-.069v.07c-5.586-5.794-12.207-10.346-19.793-13.587 2.414-7.448 6.276-14.345 11.38-20.62a74.921 74.921 0 0 1 10.482 6l.207.137c2.07 1.448 4 3.035 5.862 4.69l.138.207.138.069c1.104 1.103 2.138 2.207 3.173 3.241zM30.759 26.69c7.586 3.31 14.207 8 19.655 14-.276 1.034-.62 2.069-.828 3.103-2.138 9.31-2.069 18.828.276 28.207 1.035 4.207 2.552 8.345 4.414 12.276A69.536 69.536 0 0 0 60.069 94c-15.38-8.414-26.207-22.276-30-38.759-.483-2-.828-4-1.035-6a57.833 57.833 0 0 1-.413-6.896c0-5.173.758-10.483 2.138-15.655zm-2.483-.966a60.204 60.204 0 0 0-2.345 16.69c0 2.414.138 4.827.414 7.241.276 2.07.62 4.207 1.103 6.276 3.931 17.172 15.173 31.655 31.173 40.414-8-.552-15.793-2.552-22.759-5.931l-.276-.138c-8-3.931-14.827-9.38-20.276-16.345C4 59.448.276 40.414 5.103 21.655c4.207 0 8.414.345 12.483 1.104l.414.069c1.655.344 3.31.69 4.897 1.172l.482.138c1.655.414 3.31.965 4.897 1.586zm28.483 57.38c-1.793-3.794-3.242-7.725-4.276-11.794-2.207-8.965-2.276-18-.276-26.896.069-.414.207-.897.345-1.31l.827 1.034c1.38 1.793 2.69 3.655 3.862 5.586l4.828 10c.552 1.448.965 2.828 1.38 4.276l1.31 4.62 1.31-4.62c2.069-7.31 5.448-14 10-19.862l.828-1.035c.137.414.206.897.344 1.31A58.225 58.225 0 0 1 78.69 57.31c0 13.587-4.966 27.173-13.931 38.345-3.242-3.862-5.862-8.138-8-12.552zm59.379-7.587c8.414-10.758 12.828-23.862 12.828-37.862 0-5.93-.828-11.93-2.414-17.724l-.276-.965h-2.483c-8.207 0-16.207 1.448-23.586 4.275-1.862-5.655-4.552-11.034-7.931-16.138-1.38-2.069-2.897-4.069-4.483-6l-.62-.758-.897.414C77.93 4.414 70.69 9.517 64.69 15.93c-1.035-1.103-2.138-2.138-3.242-3.172l-.138-.138c-1.93-1.793-4.069-3.449-6.207-4.966l-.206-.138C51.24 4.897 47.24 2.69 43.034.827l-.896-.413-.62.758c-5.587 6.552-9.794 14-12.415 21.931-1.586-.62-3.172-1.103-4.758-1.586l-.207-.138h-.345c-1.655-.482-3.31-.827-4.965-1.172l-.138-.138h-.483c-4.62-.897-9.38-1.241-14.138-1.172H3.034l-.275.965c-5.38 19.931-1.587 40.207 10.413 55.655 5.725 7.38 12.966 13.173 21.518 17.242l.276.138c8.068 3.862 17.172 5.93 26.482 6.206h6.345c19.448-.482 36.966-9.034 48.345-23.586zm50.414-40.965c0 5.724-4.414 8.551-8 8.551h-6.966V26h7.104c4.069 0 7.586 2.345 7.862 7.931v.62zm7.172.069c0-5.655-2.483-15.104-15.517-15.104h-14.07v45.517h7.45V49.586h6.758c12.896 0 15.38-9.38 15.38-14.965zm8.414 44.551c-2.414.07-4.552 1.38-5.793 3.449l-.07-.07v-2.827h-4.068v19.448h4.276V87.724c0-2.827 1.862-5.103 4.69-5.103 1.172 0 2.068.276 2.69.896.689.69 1.034 1.862 1.103 3.449v12.206h4.275V85.793c0-4.345-2.69-6.62-6.896-6.62h-.207zm13.586-41.103c1.035 0 2.07.207 3.104.345v-7.035c-.621-.069-1.104-.207-2.759-.207-4.483 0-8.828 3.794-9.655 7.242h-.138v-6.345h-6.828v32.965h7.242V49.38c.138-7.31 4.069-11.31 9.034-11.31zm31.586 10.414c0 5.724-2.896 11.655-9.379 11.655s-9.38-5.931-9.38-11.655c0-5.655 2.897-11.586 9.38-11.586 6.483 0 9.38 5.93 9.38 11.586zm7.242 0c0-10.07-6.07-17.31-16.621-17.31-10.552 0-16.62 7.24-16.62 17.31 0 10.138 6.068 17.38 16.62 17.38 10.62.068 16.62-7.242 16.62-17.38zm10.965 30.69c-6.414 0-9.586 4.62-9.586 10.482 0 5.724 3.38 10.07 9.448 10.07 5.035 0 8.138-2.76 8.897-7.863H250c-.414 2.759-2.138 4.414-4.62 4.414-3.725 0-5.173-3.448-5.173-6.69 0-5.93 3.103-7.103 5.38-7.103 2.275 0 4 1.172 4.413 3.38 0 .068 0 .137.069.275h4.276c-.483-4.759-4.345-6.966-8.828-6.966zm19.449-30.69c0 5.724-2.76 11.655-9.242 11.655-6.276 0-9.103-5.586-9.103-11.31 0-5.931 2.413-12 9.241-12 5.586.069 9.104 4.413 9.104 11.655zm.137 16.551H272V19.517h-7.241v16.828h-.138c-2.207-3.655-6.828-5.173-10.966-5.173-7.172 0-14.276 5.242-14.276 17.173 0 1.034.07 2.069.138 3.103.966 8.345 6 14.552 15.242 14.552 4.138 0 8.275-1.586 10.207-5.38h.137v4.414zm6.276 22.69h-10c.138-2.896 2.138-5.172 5.104-5.172 2.896 0 4.758 2.414 4.896 5.172zm4.276 2.759c.07-.483.07-.966.07-1.38 0-5.31-3.656-9.93-9.242-9.93-5.793 0-9.38 4.758-9.38 10.275 0 6 3.449 10.207 9.518 10.207 4.276 0 7.862-2.345 8.827-6.62h-4.069c-.758 2.137-2.276 3.24-4.758 3.24-3.587 0-5.242-2.689-5.242-5.723h14.276v-.07zm3.448-64.138h7.242v-6.897h-7.242v6.897zm0 38.69h7.242V32.068h-7.242v32.965zm38.483-17.242v.345c-.069 5.517-2.552 11.103-8.827 11.103-5.862 0-8.483-5.103-8.69-10.344v-.552c0-5.517 2.207-11.448 8.69-11.448 6.275 0 8.827 5.24 8.827 10.896zm7.242 15.517V32.07h-7.242v4.483h-.138c-1.862-3.724-5.586-5.449-9.724-5.449-9.38 0-14.896 7.656-14.896 16.483 0 9.448 4.344 17.31 14.758 17.31 4.07 0 7.862-2.137 9.862-5.793h.138v5.035c0 5.448-2.62 8.414-8.483 8.414-3.724 0-7.034-.69-7.93-4.828h-7.242C294.551 75.448 302 78 308.69 78c10.344.069 16.138-4.828 16.138-14.69zm37.93-31.241h-7.586l-8.344 24.62h-.138l-8.621-24.62h-8l12.483 32.828-.828 2.551c-.896 2.828-1.724 4.621-5.103 4.621-1.173 0-2.276-.276-3.449-.414v6.138c1.656.276 3.31.414 5.035.414 7.586 0 9.31-5.38 11.655-11.31l12.897-34.828z"/></symbol></svg>